<svg width="106" height="133" viewBox="0 0 106 133" fill="none" xmlns="http://www.w3.org/2000/svg">
<path d="M95.9504 2.99994C98.9985 6.66214 104.104 13.9085 102.787 19.0482C101.582 23.75 94.9427 25.9655 91.187 27.1841C79.0978 31.1066 66.1938 31.8053 53.5843 32.1049C46.5572 32.2718 38.0861 31.304 32.7656 36.9976C26.7788 43.4042 25.5889 52.9934 26.7973 61.3216C28.1446 70.6065 34.1654 78.2913 38.0613 86.5962C41.6466 94.2389 44.7953 105.988 38.9299 113.436C32.839 121.172 20.2145 121.839 11.2463 122.188C9.17861 122.268 3.71436 120.958 3.14857 123.781M7.47378 111.917C7.34706 115.647 5.59798 119.169 3.6911 122.373C2.95747 123.606 2.44254 124.055 4.1114 124.806C8.48954 126.776 13.5138 127.977 18.0653 129.531" stroke="#98D904" stroke-opacity="0.8" stroke-width="5" stroke-linecap="round" stroke-linejoin="round"/>
</svg>
